<svg xmlns="http://www.w3.org/2000/svg" xmlns:xlink="http://www.w3.org/1999/xlink" width="500" zoomAndPan="magnify" viewBox="0 0 375 374.999991" height="500" preserveAspectRatio="xMidYMid meet" version="1.0"><defs><g/><clipPath id="5e594e0983"><path d="M 271.703125 13.058594 L 309.46875 13.058594 L 309.46875 114.855469 L 271.703125 114.855469 Z M 271.703125 13.058594 " clip-rule="nonzero"/></clipPath><clipPath id="33e6a17ab2"><path d="M 271.703125 95.238281 L 271.703125 14.621094 C 271.703125 14.136719 271.953125 13.683594 272.363281 13.421875 C 272.777344 13.164062 273.292969 13.132812 273.730469 13.34375 L 307.441406 29.503906 C 308.679688 30.097656 309.46875 31.351562 309.46875 32.726562 L 309.46875 113.34375 C 309.46875 113.828125 309.21875 114.28125 308.808594 114.542969 C 308.394531 114.800781 307.878906 114.832031 307.441406 114.621094 L 273.730469 98.460938 C 272.492188 97.867188 271.703125 96.613281 271.703125 95.238281 Z M 271.703125 95.238281 " clip-rule="nonzero"/></clipPath><clipPath id="7d4e60f14b"><path d="M 36 5.96875 L 338 5.96875 L 338 354.71875 L 36 354.71875 Z M 36 5.96875 " clip-rule="nonzero"/></clipPath><clipPath id="d31e3cff58"><path d="M 119.703125 79.199219 L 255.214844 79.199219 L 255.214844 154.753906 L 119.703125 154.753906 Z M 119.703125 79.199219 " clip-rule="nonzero"/></clipPath><clipPath id="53654adaa3"><path d="M 192.050781 81.429688 L 254.417969 149.769531 C 255.214844 150.640625 255.417969 151.898438 254.941406 152.976562 C 254.46875 154.058594 253.398438 154.753906 252.21875 154.753906 L 122.78125 154.753906 C 121.601562 154.753906 120.53125 154.058594 120.058594 152.976562 C 119.582031 151.898438 119.785156 150.640625 120.582031 149.769531 L 182.949219 81.429688 C 184.117188 80.152344 185.769531 79.421875 187.5 79.421875 C 189.230469 79.421875 190.882812 80.152344 192.050781 81.429688 Z M 192.050781 81.429688 " clip-rule="nonzero"/></clipPath></defs><g clip-path="url(#5e594e0983)"><g clip-path="url(#33e6a17ab2)"><path fill="#ffffff" d="M 271.703125 115.59375 L 271.703125 12.320312 L 309.46875 12.320312 L 309.46875 115.59375 Z M 271.703125 115.59375 " fill-opacity="1" fill-rule="nonzero"/></g></g><g clip-path="url(#7d4e60f14b)"><path fill="#ffffff" d="M 286.105469 354.777344 L 87.898438 354.777344 C 86.203125 354.773438 84.511719 354.6875 82.824219 354.519531 C 81.136719 354.351562 79.460938 354.101562 77.796875 353.769531 C 76.132812 353.4375 74.492188 353.023438 72.867188 352.53125 C 71.246094 352.039062 69.652344 351.464844 68.085938 350.816406 C 66.519531 350.167969 64.988281 349.441406 63.492188 348.640625 C 61.996094 347.839844 60.542969 346.96875 59.132812 346.027344 C 57.722656 345.082031 56.363281 344.074219 55.054688 342.996094 C 53.742188 341.921875 52.488281 340.785156 51.289062 339.585938 C 50.089844 338.386719 48.949219 337.128906 47.875 335.820312 C 46.796875 334.507812 45.789062 333.148438 44.847656 331.738281 C 43.902344 330.328125 43.03125 328.875 42.230469 327.378906 C 41.429688 325.882812 40.707031 324.355469 40.054688 322.785156 C 39.40625 321.21875 38.835938 319.625 38.339844 318.003906 C 37.847656 316.378906 37.433594 314.738281 37.101562 313.074219 C 36.769531 311.410156 36.519531 309.734375 36.351562 308.046875 C 36.183594 306.359375 36.097656 304.667969 36.097656 302.972656 L 36.097656 164.03125 C 36.089844 160.757812 36.394531 157.511719 37.019531 154.300781 C 37.640625 151.085938 38.5625 147.964844 39.789062 144.929688 C 41.019531 141.894531 42.523438 139.007812 44.3125 136.265625 C 46.097656 133.523438 48.132812 130.980469 50.410156 128.632812 L 156.445312 18.976562 C 157.429688 17.953125 158.464844 16.980469 159.550781 16.058594 C 160.632812 15.136719 161.761719 14.269531 162.933594 13.460938 C 164.105469 12.65625 165.316406 11.90625 166.5625 11.222656 C 167.808594 10.535156 169.085938 9.914062 170.398438 9.355469 C 171.707031 8.800781 173.039062 8.308594 174.398438 7.886719 C 175.757812 7.460938 177.132812 7.109375 178.527344 6.824219 C 179.921875 6.539062 181.328125 6.324219 182.746094 6.183594 C 184.160156 6.039062 185.582031 5.96875 187.003906 5.96875 C 188.425781 5.96875 189.847656 6.039062 191.261719 6.183594 C 192.679688 6.324219 194.082031 6.539062 195.476562 6.824219 C 196.871094 7.109375 198.25 7.460938 199.609375 7.886719 C 200.964844 8.308594 202.300781 8.800781 203.609375 9.355469 C 204.917969 9.914062 206.199219 10.535156 207.445312 11.222656 C 208.691406 11.90625 209.902344 12.65625 211.074219 13.460938 C 212.242188 14.269531 213.371094 15.136719 214.457031 16.058594 C 215.542969 16.980469 216.578125 17.953125 217.5625 18.976562 L 333.476562 138.847656 C 333.839844 139.21875 334.183594 139.605469 334.507812 140.011719 C 334.828125 140.414062 335.132812 140.835938 335.414062 141.269531 C 335.695312 141.703125 335.957031 142.148438 336.195312 142.609375 C 336.433594 143.070312 336.648438 143.539062 336.839844 144.019531 C 337.03125 144.503906 337.199219 144.992188 337.34375 145.488281 C 337.488281 145.988281 337.605469 146.488281 337.699219 147 C 337.792969 147.507812 337.863281 148.019531 337.90625 148.539062 C 337.949219 149.054688 337.96875 149.570312 337.960938 150.089844 C 337.953125 150.605469 337.917969 151.121094 337.859375 151.636719 C 337.800781 152.152344 337.71875 152.660156 337.609375 153.167969 C 337.5 153.675781 337.367188 154.175781 337.210938 154.667969 C 337.054688 155.160156 336.871094 155.644531 336.664062 156.121094 C 336.460938 156.597656 336.230469 157.058594 335.980469 157.511719 C 335.726562 157.964844 335.457031 158.40625 335.160156 158.832031 C 334.867188 159.257812 334.550781 159.667969 334.214844 160.0625 C 333.882812 160.457031 333.527344 160.835938 333.15625 161.195312 C 332.78125 161.554688 332.394531 161.894531 331.988281 162.21875 C 331.582031 162.539062 331.160156 162.839844 330.726562 163.121094 C 330.289062 163.398438 329.84375 163.65625 329.382812 163.894531 C 328.917969 164.128906 328.449219 164.34375 327.964844 164.53125 C 327.484375 164.722656 326.996094 164.886719 326.496094 165.027344 C 325.996094 165.171875 325.492188 165.285156 324.984375 165.378906 C 324.472656 165.46875 323.960938 165.535156 323.445312 165.578125 C 322.929688 165.617188 322.410156 165.632812 321.894531 165.625 C 321.375 165.613281 320.859375 165.578125 320.347656 165.519531 C 319.832031 165.457031 319.320312 165.371094 318.816406 165.261719 C 318.308594 165.148438 317.8125 165.015625 317.316406 164.855469 C 316.824219 164.695312 316.34375 164.507812 315.867188 164.300781 C 315.394531 164.09375 314.929688 163.863281 314.480469 163.609375 C 314.027344 163.355469 313.589844 163.082031 313.164062 162.785156 C 312.738281 162.488281 312.332031 162.171875 311.9375 161.835938 C 311.542969 161.496094 311.167969 161.140625 310.808594 160.769531 L 194.886719 40.941406 C 194.382812 40.40625 193.824219 39.921875 193.222656 39.496094 C 192.617188 39.074219 191.976562 38.714844 191.296875 38.421875 C 190.621094 38.125 189.917969 37.90625 189.195312 37.753906 C 188.472656 37.605469 187.742188 37.53125 187.003906 37.53125 C 186.265625 37.53125 185.535156 37.605469 184.808594 37.753906 C 184.085938 37.90625 183.386719 38.125 182.707031 38.421875 C 182.03125 38.714844 181.390625 39.074219 180.785156 39.496094 C 180.179688 39.921875 179.625 40.40625 179.121094 40.941406 L 73.078125 150.550781 C 71.332031 152.363281 69.988281 154.441406 69.054688 156.777344 C 68.117188 159.117188 67.660156 161.546875 67.675781 164.066406 L 67.675781 302.972656 C 67.675781 303.636719 67.707031 304.296875 67.773438 304.957031 C 67.839844 305.617188 67.9375 306.273438 68.066406 306.925781 C 68.199219 307.574219 68.359375 308.21875 68.554688 308.855469 C 68.746094 309.488281 68.96875 310.113281 69.222656 310.726562 C 69.480469 311.339844 69.761719 311.9375 70.074219 312.523438 C 70.386719 313.109375 70.730469 313.675781 71.097656 314.226562 C 71.46875 314.78125 71.863281 315.3125 72.285156 315.824219 C 72.703125 316.335938 73.148438 316.828125 73.617188 317.296875 C 74.089844 317.765625 74.578125 318.210938 75.09375 318.632812 C 75.605469 319.054688 76.136719 319.449219 76.6875 319.820312 C 77.242188 320.1875 77.808594 320.527344 78.394531 320.84375 C 78.980469 321.15625 79.578125 321.4375 80.191406 321.691406 C 80.804688 321.949219 81.429688 322.171875 82.0625 322.363281 C 82.699219 322.558594 83.339844 322.71875 83.992188 322.847656 C 84.644531 322.980469 85.296875 323.078125 85.960938 323.144531 C 86.621094 323.210938 87.28125 323.242188 87.945312 323.242188 L 286.152344 323.242188 C 287.1875 323.242188 288.210938 323.34375 289.226562 323.546875 C 290.242188 323.75 291.230469 324.046875 292.183594 324.445312 C 293.140625 324.839844 294.050781 325.324219 294.910156 325.902344 C 295.773438 326.476562 296.566406 327.128906 297.300781 327.859375 C 298.03125 328.59375 298.6875 329.390625 299.261719 330.25 C 299.835938 331.109375 300.320312 332.019531 300.71875 332.976562 C 301.113281 333.933594 301.414062 334.917969 301.613281 335.933594 C 301.816406 336.949219 301.917969 337.972656 301.917969 339.007812 C 301.917969 340.046875 301.816406 341.070312 301.613281 342.085938 C 301.414062 343.101562 301.113281 344.085938 300.71875 345.042969 C 300.320312 346 299.835938 346.910156 299.261719 347.769531 C 298.6875 348.628906 298.03125 349.425781 297.300781 350.160156 C 296.566406 350.890625 295.773438 351.542969 294.910156 352.117188 C 294.050781 352.695312 293.140625 353.179688 292.183594 353.574219 C 291.230469 353.972656 290.242188 354.269531 289.226562 354.472656 C 288.210938 354.675781 287.1875 354.777344 286.152344 354.777344 Z M 286.105469 354.777344 " fill-opacity="1" fill-rule="nonzero"/></g><g clip-path="url(#d31e3cff58)"><g clip-path="url(#53654adaa3)"><path fill="#05ff00" d="M 116.03125 76.445312 L 258.886719 76.445312 L 258.886719 154.753906 L 116.03125 154.753906 Z M 116.03125 76.445312 " fill-opacity="1" fill-rule="nonzero"/></g></g><g fill="#ffffff" fill-opacity="1"><g transform="translate(74.343508, 281.146456)"><g><path d="M 7.390625 0 L 7.390625 -85.0625 L 41.453125 -85.0625 C 50.835938 -85.0625 57.890625 -83.019531 62.609375 -78.9375 C 67.335938 -74.851562 69.703125 -69.628906 69.703125 -63.265625 C 69.703125 -58.253906 68.25 -54.203125 65.34375 -51.109375 C 62.4375 -48.023438 58.765625 -45.984375 54.328125 -44.984375 L 54.328125 -44.15625 C 57.566406 -44.019531 60.601562 -43.101562 63.4375 -41.40625 C 66.28125 -39.71875 68.585938 -37.363281 70.359375 -34.34375 C 72.128906 -31.332031 73.015625 -27.722656 73.015625 -23.515625 C 73.015625 -18.992188 71.898438 -14.960938 69.671875 -11.421875 C 67.441406 -7.878906 64.15625 -5.085938 59.8125 -3.046875 C 55.46875 -1.015625 50.109375 0 43.734375 0 Z M 25.375 -14.703125 L 40.046875 -14.703125 C 45.085938 -14.703125 48.75 -15.671875 51.03125 -17.609375 C 53.3125 -19.546875 54.453125 -22.109375 54.453125 -25.296875 C 54.453125 -28.816406 53.195312 -31.695312 50.6875 -33.9375 C 48.1875 -36.175781 44.773438 -37.296875 40.453125 -37.296875 L 25.375 -37.296875 Z M 25.375 -49.46875 L 38.71875 -49.46875 C 42.394531 -49.46875 45.453125 -50.429688 47.890625 -52.359375 C 50.328125 -54.285156 51.546875 -56.921875 51.546875 -60.265625 C 51.546875 -63.335938 50.457031 -65.816406 48.28125 -67.703125 C 46.113281 -69.585938 43.035156 -70.53125 39.046875 -70.53125 L 25.375 -70.53125 Z M 25.375 -49.46875 "/></g></g></g><g fill="#ffffff" fill-opacity="1"><g transform="translate(167.666871, 281.146456)"><g><path d="M 53.546875 -60.609375 C 53.210938 -63.953125 51.773438 -66.550781 49.234375 -68.40625 C 46.703125 -70.257812 43.289062 -71.1875 39 -71.1875 C 34.601562 -71.1875 31.226562 -70.285156 28.875 -68.484375 C 26.519531 -66.691406 25.34375 -64.425781 25.34375 -61.6875 C 25.28125 -58.632812 26.582031 -56.328125 29.25 -54.765625 C 31.925781 -53.203125 35.109375 -51.988281 38.796875 -51.125 L 46.4375 -49.3125 C 51.363281 -48.195312 55.742188 -46.585938 59.578125 -44.484375 C 63.421875 -42.378906 66.441406 -39.671875 68.640625 -36.359375 C 70.835938 -33.054688 71.9375 -29.035156 71.9375 -24.296875 C 71.914062 -16.515625 69.003906 -10.316406 63.203125 -5.703125 C 57.398438 -1.097656 49.304688 1.203125 38.921875 1.203125 C 28.585938 1.203125 20.347656 -1.148438 14.203125 -5.859375 C 8.054688 -10.566406 4.875 -17.515625 4.65625 -26.703125 L 22.0625 -26.703125 C 22.363281 -22.441406 24.039062 -19.238281 27.09375 -17.09375 C 30.15625 -14.945312 34.03125 -13.875 38.71875 -13.875 C 43.28125 -13.875 46.925781 -14.84375 49.65625 -16.78125 C 52.382812 -18.71875 53.765625 -21.238281 53.796875 -24.34375 C 53.765625 -27.21875 52.5 -29.429688 50 -30.984375 C 47.507812 -32.535156 43.953125 -33.863281 39.328125 -34.96875 L 30.078125 -37.296875 C 22.898438 -39.015625 17.234375 -41.742188 13.078125 -45.484375 C 8.929688 -49.222656 6.867188 -54.222656 6.890625 -60.484375 C 6.867188 -65.628906 8.25 -70.132812 11.03125 -74 C 13.8125 -77.863281 17.640625 -80.867188 22.515625 -83.015625 C 27.390625 -85.160156 32.925781 -86.234375 39.125 -86.234375 C 45.4375 -86.234375 50.953125 -85.148438 55.671875 -82.984375 C 60.398438 -80.828125 64.078125 -77.820312 66.703125 -73.96875 C 69.335938 -70.125 70.695312 -65.671875 70.78125 -60.609375 Z M 53.546875 -60.609375 "/></g></g></g><g fill="#ffffff" fill-opacity="1"><g transform="translate(260.284121, 281.146456)"><g><path d="M 37.546875 0 L 7.390625 0 L 7.390625 -85.0625 L 37.796875 -85.0625 C 46.359375 -85.0625 53.734375 -83.363281 59.921875 -79.96875 C 66.109375 -76.582031 70.863281 -71.71875 74.1875 -65.375 C 77.507812 -59.039062 79.171875 -51.457031 79.171875 -42.625 C 79.171875 -33.757812 77.5 -26.140625 74.15625 -19.765625 C 70.820312 -13.398438 66.046875 -8.515625 59.828125 -5.109375 C 53.617188 -1.703125 46.191406 0 37.546875 0 Z M 25.375 -15.40625 L 36.796875 -15.40625 C 44.804688 -15.40625 50.878906 -17.566406 55.015625 -21.890625 C 59.148438 -26.210938 61.21875 -33.125 61.21875 -42.625 C 61.21875 -52.0625 59.148438 -58.925781 55.015625 -63.21875 C 50.878906 -67.507812 44.820312 -69.65625 36.84375 -69.65625 L 25.375 -69.65625 Z M 25.375 -15.40625 "/></g></g></g></svg>